<mxfile host="app.diagrams.net" modified="2022-11-19T23:59:00.786Z" agent="5.0 (Macintosh; Intel Mac OS X 10_15_7) AppleWebKit/537.36 (KHTML, like Gecko) Chrome/107.0.0.0 Safari/537.36" etag="JFmkwzJmq_5A6f3xHa-d" version="20.5.3" type="github">
  <diagram id="egF5TxKUiRy08cK1zPrM" name="Page-1">
    <mxGraphModel dx="676" dy="381" grid="0" gridSize="10" guides="1" tooltips="1" connect="1" arrows="1" fold="1" page="1" pageScale="1" pageWidth="827" pageHeight="1169" math="0" shadow="0">
      <root>
        <mxCell id="0" />
        <mxCell id="1" parent="0" />
        <mxCell id="FpjAOOFjA3iJDY1Hjrk3-17" style="edgeStyle=orthogonalEdgeStyle;rounded=0;orthogonalLoop=1;jettySize=auto;html=1;exitX=0;exitY=0.5;exitDx=0;exitDy=0;entryX=0.99;entryY=0.163;entryDx=0;entryDy=0;entryPerimeter=0;startArrow=diamondThin;startFill=0;endArrow=open;endFill=0;" edge="1" parent="1" source="FpjAOOFjA3iJDY1Hjrk3-1" target="FpjAOOFjA3iJDY1Hjrk3-14">
          <mxGeometry relative="1" as="geometry" />
        </mxCell>
        <mxCell id="FpjAOOFjA3iJDY1Hjrk3-1" value="MetaObject" style="swimlane;fontStyle=1;align=center;verticalAlign=top;childLayout=stackLayout;horizontal=1;startSize=26;horizontalStack=0;resizeParent=1;resizeParentMax=0;resizeLast=0;collapsible=1;marginBottom=0;" vertex="1" parent="1">
          <mxGeometry x="267" y="164" width="185" height="216" as="geometry" />
        </mxCell>
        <mxCell id="FpjAOOFjA3iJDY1Hjrk3-2" value="+ name: String" style="text;strokeColor=none;fillColor=none;align=left;verticalAlign=top;spacingLeft=4;spacingRight=4;overflow=hidden;rotatable=0;points=[[0,0.5],[1,0.5]];portConstraint=eastwest;" vertex="1" parent="FpjAOOFjA3iJDY1Hjrk3-1">
          <mxGeometry y="26" width="185" height="26" as="geometry" />
        </mxCell>
        <mxCell id="FpjAOOFjA3iJDY1Hjrk3-11" value="+ fields: List&lt;MetaField&gt;" style="text;strokeColor=none;fillColor=none;align=left;verticalAlign=top;spacingLeft=4;spacingRight=4;overflow=hidden;rotatable=0;points=[[0,0.5],[1,0.5]];portConstraint=eastwest;" vertex="1" parent="FpjAOOFjA3iJDY1Hjrk3-1">
          <mxGeometry y="52" width="185" height="26" as="geometry" />
        </mxCell>
        <mxCell id="FpjAOOFjA3iJDY1Hjrk3-18" value="+ actions: List&lt;MetaActions&gt;" style="text;strokeColor=none;fillColor=none;align=left;verticalAlign=top;spacingLeft=4;spacingRight=4;overflow=hidden;rotatable=0;points=[[0,0.5],[1,0.5]];portConstraint=eastwest;" vertex="1" parent="FpjAOOFjA3iJDY1Hjrk3-1">
          <mxGeometry y="78" width="185" height="26" as="geometry" />
        </mxCell>
        <mxCell id="FpjAOOFjA3iJDY1Hjrk3-21" value="+ masters: List&lt;String&gt;" style="text;strokeColor=none;fillColor=none;align=left;verticalAlign=top;spacingLeft=4;spacingRight=4;overflow=hidden;rotatable=0;points=[[0,0.5],[1,0.5]];portConstraint=eastwest;" vertex="1" parent="FpjAOOFjA3iJDY1Hjrk3-1">
          <mxGeometry y="104" width="185" height="26" as="geometry" />
        </mxCell>
        <mxCell id="FpjAOOFjA3iJDY1Hjrk3-20" value="+ details: List&lt;String&gt;" style="text;strokeColor=none;fillColor=none;align=left;verticalAlign=top;spacingLeft=4;spacingRight=4;overflow=hidden;rotatable=0;points=[[0,0.5],[1,0.5]];portConstraint=eastwest;" vertex="1" parent="FpjAOOFjA3iJDY1Hjrk3-1">
          <mxGeometry y="130" width="185" height="26" as="geometry" />
        </mxCell>
        <mxCell id="FpjAOOFjA3iJDY1Hjrk3-3" value="" style="line;strokeWidth=1;fillColor=none;align=left;verticalAlign=middle;spacingTop=-1;spacingLeft=3;spacingRight=3;rotatable=0;labelPosition=right;points=[];portConstraint=eastwest;strokeColor=inherit;" vertex="1" parent="FpjAOOFjA3iJDY1Hjrk3-1">
          <mxGeometry y="156" width="185" height="8" as="geometry" />
        </mxCell>
        <mxCell id="FpjAOOFjA3iJDY1Hjrk3-4" value="+ method(type): type" style="text;strokeColor=none;fillColor=none;align=left;verticalAlign=top;spacingLeft=4;spacingRight=4;overflow=hidden;rotatable=0;points=[[0,0.5],[1,0.5]];portConstraint=eastwest;" vertex="1" parent="FpjAOOFjA3iJDY1Hjrk3-1">
          <mxGeometry y="164" width="185" height="26" as="geometry" />
        </mxCell>
        <mxCell id="FpjAOOFjA3iJDY1Hjrk3-19" style="text;strokeColor=none;fillColor=none;align=left;verticalAlign=top;spacingLeft=4;spacingRight=4;overflow=hidden;rotatable=0;points=[[0,0.5],[1,0.5]];portConstraint=eastwest;" vertex="1" parent="FpjAOOFjA3iJDY1Hjrk3-1">
          <mxGeometry y="190" width="185" height="26" as="geometry" />
        </mxCell>
        <mxCell id="FpjAOOFjA3iJDY1Hjrk3-6" value="MetaField" style="swimlane;fontStyle=1;align=center;verticalAlign=top;childLayout=stackLayout;horizontal=1;startSize=26;horizontalStack=0;resizeParent=1;resizeParentMax=0;resizeLast=0;collapsible=1;marginBottom=0;" vertex="1" parent="1">
          <mxGeometry x="577" y="179" width="160" height="86" as="geometry" />
        </mxCell>
        <mxCell id="FpjAOOFjA3iJDY1Hjrk3-7" value="+ field: type" style="text;strokeColor=none;fillColor=none;align=left;verticalAlign=top;spacingLeft=4;spacingRight=4;overflow=hidden;rotatable=0;points=[[0,0.5],[1,0.5]];portConstraint=eastwest;" vertex="1" parent="FpjAOOFjA3iJDY1Hjrk3-6">
          <mxGeometry y="26" width="160" height="26" as="geometry" />
        </mxCell>
        <mxCell id="FpjAOOFjA3iJDY1Hjrk3-8" value="" style="line;strokeWidth=1;fillColor=none;align=left;verticalAlign=middle;spacingTop=-1;spacingLeft=3;spacingRight=3;rotatable=0;labelPosition=right;points=[];portConstraint=eastwest;strokeColor=inherit;" vertex="1" parent="FpjAOOFjA3iJDY1Hjrk3-6">
          <mxGeometry y="52" width="160" height="8" as="geometry" />
        </mxCell>
        <mxCell id="FpjAOOFjA3iJDY1Hjrk3-9" value="+ method(type): type" style="text;strokeColor=none;fillColor=none;align=left;verticalAlign=top;spacingLeft=4;spacingRight=4;overflow=hidden;rotatable=0;points=[[0,0.5],[1,0.5]];portConstraint=eastwest;" vertex="1" parent="FpjAOOFjA3iJDY1Hjrk3-6">
          <mxGeometry y="60" width="160" height="26" as="geometry" />
        </mxCell>
        <mxCell id="FpjAOOFjA3iJDY1Hjrk3-10" style="edgeStyle=orthogonalEdgeStyle;rounded=0;orthogonalLoop=1;jettySize=auto;html=1;exitX=1.002;exitY=0.08;exitDx=0;exitDy=0;endArrow=open;endFill=0;startArrow=diamondThin;startFill=0;exitPerimeter=0;" edge="1" parent="1" source="FpjAOOFjA3iJDY1Hjrk3-11" target="FpjAOOFjA3iJDY1Hjrk3-7">
          <mxGeometry relative="1" as="geometry" />
        </mxCell>
        <mxCell id="FpjAOOFjA3iJDY1Hjrk3-12" value="MetaAction" style="swimlane;fontStyle=1;align=center;verticalAlign=top;childLayout=stackLayout;horizontal=1;startSize=26;horizontalStack=0;resizeParent=1;resizeParentMax=0;resizeLast=0;collapsible=1;marginBottom=0;" vertex="1" parent="1">
          <mxGeometry x="29" y="164" width="160" height="112" as="geometry" />
        </mxCell>
        <mxCell id="FpjAOOFjA3iJDY1Hjrk3-13" value="+ name: String" style="text;strokeColor=none;fillColor=none;align=left;verticalAlign=top;spacingLeft=4;spacingRight=4;overflow=hidden;rotatable=0;points=[[0,0.5],[1,0.5]];portConstraint=eastwest;" vertex="1" parent="FpjAOOFjA3iJDY1Hjrk3-12">
          <mxGeometry y="26" width="160" height="26" as="geometry" />
        </mxCell>
        <mxCell id="FpjAOOFjA3iJDY1Hjrk3-14" value="+ fields: List&lt;MetaField&gt;" style="text;strokeColor=none;fillColor=none;align=left;verticalAlign=top;spacingLeft=4;spacingRight=4;overflow=hidden;rotatable=0;points=[[0,0.5],[1,0.5]];portConstraint=eastwest;" vertex="1" parent="FpjAOOFjA3iJDY1Hjrk3-12">
          <mxGeometry y="52" width="160" height="26" as="geometry" />
        </mxCell>
        <mxCell id="FpjAOOFjA3iJDY1Hjrk3-15" value="" style="line;strokeWidth=1;fillColor=none;align=left;verticalAlign=middle;spacingTop=-1;spacingLeft=3;spacingRight=3;rotatable=0;labelPosition=right;points=[];portConstraint=eastwest;strokeColor=inherit;" vertex="1" parent="FpjAOOFjA3iJDY1Hjrk3-12">
          <mxGeometry y="78" width="160" height="8" as="geometry" />
        </mxCell>
        <mxCell id="FpjAOOFjA3iJDY1Hjrk3-16" value="+ method(type): type" style="text;strokeColor=none;fillColor=none;align=left;verticalAlign=top;spacingLeft=4;spacingRight=4;overflow=hidden;rotatable=0;points=[[0,0.5],[1,0.5]];portConstraint=eastwest;" vertex="1" parent="FpjAOOFjA3iJDY1Hjrk3-12">
          <mxGeometry y="86" width="160" height="26" as="geometry" />
        </mxCell>
      </root>
    </mxGraphModel>
  </diagram>
</mxfile>
